<?xml version="1.0" encoding="UTF-8"?><!DOCTYPE svg PUBLIC "-//W3C//DTD SVG 1.1//EN" "http://www.w3.org/Graphics/SVG/1.1/DTD/svg11.dtd"><svg xmlns="http://www.w3.org/2000/svg" xmlns:xlink="http://www.w3.org/1999/xlink"><defs/><symbol id="lock" viewBox="0 0 12 16"><path fill-rule="evenodd" d="M4 13H3v-1h1v1zm8-6v7c0 .55-.45 1-1 1H1c-.55 0-1-.45-1-1V7c0-.55.45-1 1-1h1V4c0-2.2 1.8-4 4-4s4 1.8 4 4v2h1c.55 0 1 .45 1 1zM3.8 6h4.41V4c0-1.22-.98-2.2-2.2-2.2-1.22 0-2.2.98-2.2 2.2v2H3.8zM11 7H2v7h9V7zM4 8H3v1h1V8zm0 2H3v1h1v-1z"/></symbol><symbol id="info" viewBox="0 0 14 16"><path fill-rule="evenodd" d="M6.3 5.69a.942.942 0 0 1-.28-.7c0-.28.09-.52.28-.7.19-.18.42-.28.7-.28.28 0 .52.09.7.28.18.19.28.42.28.7 0 .28-.09.52-.28.7a1 1 0 0 1-.7.3c-.28 0-.52-.11-.7-.3zM8 7.99c-.02-.25-.11-.48-.31-.69-.2-.19-.42-.3-.69-.31H6c-.27.02-.48.13-.69.31-.2.2-.3.44-.31.69h1v3c.02.27.11.5.31.69.2.2.42.31.69.31h1c.27 0 .48-.11.69-.31.2-.19.3-.42.31-.69H8V7.98v.01zM7 2.3c-3.14 0-5.7 2.54-5.7 5.68 0 3.14 2.56 5.7 5.7 5.7s5.7-2.55 5.7-5.7c0-3.15-2.56-5.69-5.7-5.69v.01zM7 .98c3.86 0 7 3.14 7 7s-3.14 7-7 7-7-3.12-7-7 3.14-7 7-7z"/></symbol><symbol id="desktop-download" viewBox="0 0 16 16"><path fill-rule="evenodd" d="M4 6h3V0h2v6h3l-4 4-4-4zm11-4h-4v1h4v8H1V3h4V2H1c-.55 0-1 .45-1 1v9c0 .55.45 1 1 1h5.34c-.25.61-.86 1.39-2.34 2h8c-1.48-.61-2.09-1.39-2.34-2H15c.55 0 1-.45 1-1V3c0-.55-.45-1-1-1z"/></symbol><symbol id="octoface" viewBox="0 0 16 16"><path fill-rule="evenodd" d="M14.7 5.34c.13-.32.55-1.59-.13-3.31 0 0-1.05-.33-3.44 1.3-1-.28-2.07-.32-3.13-.32s-2.13.04-3.13.32c-2.39-1.64-3.44-1.3-3.44-1.3-.68 1.72-.26 2.99-.13 3.31C.49 6.21 0 7.33 0 8.69 0 13.84 3.33 15 7.98 15S16 13.84 16 8.69c0-1.36-.49-2.48-1.3-3.35zM8 14.02c-3.3 0-5.98-.15-5.98-3.35 0-.76.38-1.48 1.02-2.07 1.07-.98 2.9-.46 4.96-.46 2.07 0 3.88-.52 4.96.46.65.59 1.02 1.3 1.02 2.07 0 3.19-2.68 3.35-5.98 3.35zM5.49 9.01c-.66 0-1.2.8-1.2 1.78s.54 1.79 1.2 1.79c.66 0 1.2-.8 1.2-1.79s-.54-1.78-1.2-1.78zm5.02 0c-.66 0-1.2.79-1.2 1.78s.54 1.79 1.2 1.79c.66 0 1.2-.8 1.2-1.79s-.53-1.78-1.2-1.78z"/></symbol><symbol id="quote" viewBox="0 0 14 16"><path fill-rule="evenodd" d="M6.16 3.5C3.73 5.06 2.55 6.67 2.55 9.36c.16-.05.3-.05.44-.05 1.27 0 2.5.86 2.5 2.41 0 1.61-1.03 2.61-2.5 2.61-1.9 0-2.99-1.52-2.99-4.25 0-3.8 1.75-6.53 5.02-8.42L6.16 3.5zm7 0c-2.43 1.56-3.61 3.17-3.61 5.86.16-.05.3-.05.44-.05 1.27 0 2.5.86 2.5 2.41 0 1.61-1.03 2.61-2.5 2.61-1.89 0-2.98-1.52-2.98-4.25 0-3.8 1.75-6.53 5.02-8.42l1.14 1.84h-.01z"/></symbol><symbol id="arrow-down" viewBox="0 0 10 16"><path fill-rule="evenodd" d="M7 7V3H3v4H0l5 6 5-6H7z"/></symbol><symbol id="eye" viewBox="0 0 16 16"><path fill-rule="evenodd" d="M8.06 2C3 2 0 8 0 8s3 6 8.06 6C13 14 16 8 16 8s-3-6-7.94-6zM8 12c-2.2 0-4-1.78-4-4 0-2.2 1.8-4 4-4 2.22 0 4 1.8 4 4 0 2.22-1.78 4-4 4zm2-4c0 1.11-.89 2-2 2-1.11 0-2-.89-2-2 0-1.11.89-2 2-2 1.11 0 2 .89 2 2z"/></symbol><symbol id="reply" viewBox="0 0 14 16"><path fill-rule="evenodd" d="M6 3.5c3.92.44 8 3.125 8 10-2.312-5.062-4.75-6-8-6V11L.5 5.5 6 0v3.5z"/></symbol><symbol id="paintcan" viewBox="0 0 12 16"><path fill-rule="evenodd" d="M6 0C2.69 0 0 2.69 0 6v1c0 .55.45 1 1 1v5c0 1.1 2.24 2 5 2s5-.9 5-2V8c.55 0 1-.45 1-1V6c0-3.31-2.69-6-6-6zm3 10v.5c0 .28-.22.5-.5.5s-.5-.22-.5-.5V10c0-.28-.22-.5-.5-.5s-.5.22-.5.5v2.5c0 .28-.22.5-.5.5s-.5-.22-.5-.5v-2c0-.28-.22-.5-.5-.5s-.5.22-.5.5v.5c0 .55-.45 1-1 1s-1-.45-1-1v-1c-.55 0-1-.45-1-1V7.2c.91.49 2.36.8 4 .8 1.64 0 3.09-.31 4-.8V9c0 .55-.45 1-1 1zM6 7c-1.68 0-3.12-.41-3.71-1C2.88 5.41 4.32 5 6 5c1.68 0 3.12.41 3.71 1-.59.59-2.03 1-3.71 1zm0-3c-2.76 0-5 .89-5 2 0-2.76 2.24-5 5-5s5 2.24 5 5c0-1.1-2.24-2-5-2z"/></symbol><symbol id="device-camera" viewBox="0 0 16 16"><path fill-rule="evenodd" d="M15 3H7c0-.55-.45-1-1-1H2c-.55 0-1 .45-1 1-.55 0-1 .45-1 1v9c0 .55.45 1 1 1h14c.55 0 1-.45 1-1V4c0-.55-.45-1-1-1zM6 5H2V4h4v1zm4.5 7C8.56 12 7 10.44 7 8.5S8.56 5 10.5 5 14 6.56 14 8.5 12.44 12 10.5 12zM13 8.5c0 1.38-1.13 2.5-2.5 2.5S8 9.87 8 8.5 9.13 6 10.5 6 13 7.13 13 8.5z"/></symbol><symbol id="telescope" viewBox="0 0 14 16"><path fill-rule="evenodd" d="M8 9l3 6h-1l-2-4v5H7v-6l-2 5H4l2-5 2-1zM7 0H6v1h1V0zM5 3H4v1h1V3zM2 1H1v1h1V1zM.63 9a.52.52 0 0 0-.16.67l.55.92c.13.23.41.31.64.2l1.39-.66-1.16-2-1.27.86.01.01zm7.89-5.39l-5.8 3.95L3.95 9.7l6.33-3.03-1.77-3.06h.01zm4.22 1.28l-1.47-2.52a.51.51 0 0 0-.72-.17l-1.2.83 1.84 3.2 1.33-.64c.27-.13.36-.44.22-.7z"/></symbol><symbol id="megaphone" viewBox="0 0 16 16"><path fill-rule="evenodd" d="M10 1c-.17 0-.36.05-.52.14C8.04 2.02 4.5 4.58 3 5c-1.38 0-3 .67-3 2.5S1.63 10 3 10c.3.08.64.23 1 .41V15h2v-3.45c1.34.86 2.69 1.83 3.48 2.31.16.09.34.14.52.14.52 0 1-.42 1-1V2c0-.58-.48-1-1-1zm0 12c-.38-.23-.89-.58-1.5-1-.16-.11-.33-.22-.5-.34V3.31c.16-.11.31-.2.47-.31.61-.41 1.16-.77 1.53-1v11zm2-6h4v1h-4V7zm0 2l4 2v1l-4-2V9zm4-6v1l-4 2V5l4-2z"/></symbol><symbol id="star" viewBox="0 0 14 16"><path fill-rule="evenodd" d="M14 6l-4.9-.64L7 1 4.9 5.36 0 6l3.6 3.26L2.67 14 7 11.67 11.33 14l-.93-4.74L14 6z"/></symbol><symbol id="bookmark" viewBox="0 0 10 16"><path fill-rule="evenodd" d="M9 0H1C.27 0 0 .27 0 1v15l5-3.09L10 16V1c0-.73-.27-1-1-1zm-.78 4.25L6.36 5.61l.72 2.16c.06.22-.02.28-.2.17L5 6.6 3.12 7.94c-.19.11-.25.05-.2-.17l.72-2.16-1.86-1.36c-.17-.16-.14-.23.09-.23l2.3-.03.7-2.16h.25l.7 2.16 2.3.03c.23 0 .27.08.09.23h.01z"/></symbol><symbol id="link" viewBox="0 0 16 16"><path fill-rule="evenodd" d="M4 9h1v1H4c-1.5 0-3-1.69-3-3.5S2.55 3 4 3h4c1.45 0 3 1.69 3 3.5 0 1.41-.91 2.72-2 3.25V8.59c.58-.45 1-1.27 1-2.09C10 5.22 8.98 4 8 4H4c-.98 0-2 1.22-2 2.5S3 9 4 9zm9-3h-1v1h1c1 0 2 1.22 2 2.5S13.98 12 13 12H9c-.98 0-2-1.22-2-2.5 0-.83.42-1.64 1-2.09V6.25c-1.09.53-2 1.84-2 3.25C6 11.31 7.55 13 9 13h4c1.45 0 3-1.69 3-3.5S14.5 6 13 6z"/></symbol><symbol id="arrow-up" viewBox="0 0 10 16"><path fill-rule="evenodd" d="M5 3L0 9h3v4h4V9h3L5 3z"/></symbol></svg>